<?xml version="1.0" standalone="no"?>
<!DOCTYPE svg PUBLIC "-//W3C//DTD SVG 20010904//EN"
 "http://www.w3.org/TR/2001/REC-SVG-20010904/DTD/svg10.dtd">
<svg version="1.0" xmlns="http://www.w3.org/2000/svg"
 width="955.000000pt" height="955.000000pt" viewBox="0 0 955.000000 955.000000"
 preserveAspectRatio="xMidYMid meet">
<metadata>
Created by potrace 1.14, written by Peter Selinger 2001-2017
</metadata>
<g transform="translate(0.000000,955.000000) scale(0.100000,-0.100000)"
fill="#000000" stroke="none">
<path d="M2400 9528 c0 -4 4 -8 9 -8 6 0 12 4 15 8 3 5 -1 9 -9 9 -8 0 -15 -4
-15 -9z"/>
<path d="M1610 9474 c-44 -30 -85 -77 -102 -115 -7 -16 -17 -29 -21 -29 -5 0
-5 -4 -2 -10 3 -5 1 -10 -4 -10 -6 0 -10 -3 -10 -7 1 -5 0 -11 -1 -15 -1 -5
-3 -11 -4 -15 -1 -5 -7 -18 -14 -29 -6 -12 -8 -24 -5 -28 3 -3 2 -6 -4 -6 -6
0 -9 -9 -6 -20 3 -11 1 -20 -4 -20 -6 0 -10 -14 -11 -32 0 -17 -5 -34 -9 -37
-5 -3 -10 -22 -11 -41 -1 -19 -4 -55 -7 -80 -9 -80 -12 -161 -6 -165 4 -2 6
-29 6 -59 -1 -31 2 -56 6 -56 8 0 4 -54 -6 -69 -4 -7 -11 -11 -17 -9 -10 4
-42 83 -62 158 -10 37 -13 41 -18 23 -3 -13 -2 -23 4 -23 5 0 6 -5 3 -10 -10
-17 -14 -80 -5 -85 5 -3 7 -14 5 -25 -2 -11 0 -20 5 -20 4 0 6 -9 3 -20 -3
-12 0 -20 6 -20 7 0 9 -4 6 -10 -3 -5 5 -33 18 -61 21 -42 22 -51 10 -56 -13
-5 -73 51 -73 69 0 3 -10 4 -22 2 -13 -2 -18 -2 -11 2 7 3 9 12 6 20 -8 22
-21 16 -18 -9 4 -34 73 -232 94 -270 11 -19 25 -45 33 -58 7 -13 16 -26 19
-29 3 -3 19 -25 36 -50 55 -80 167 -172 269 -221 47 -23 50 -26 43 -52 -6 -20
-4 -30 7 -34 7 -3 11 -9 8 -14 -3 -5 -2 -9 3 -9 7 0 27 -15 80 -60 7 -5 17
-10 23 -10 5 0 10 -4 10 -9 0 -5 19 -15 42 -23 39 -12 64 -38 38 -38 -6 0 -18
-7 -26 -15 -12 -12 -13 -16 -2 -19 7 -3 25 -8 40 -13 18 -5 25 -12 20 -20 -13
-21 -289 -25 -387 -6 -44 8 -86 19 -92 25 -7 6 -13 6 -13 1 0 -17 121 -70 180
-79 19 -3 42 -7 50 -9 21 -6 126 -7 174 -1 22 3 43 3 47 0 17 -10 -4 -33 -46
-48 -44 -17 -65 -44 -44 -56 19 -12 15 -21 -14 -37 -47 -24 -97 -33 -202 -37
-44 -2 -91 1 -105 5 -23 8 -24 8 -7 -5 26 -20 104 -29 221 -25 62 3 102 0 104
-6 1 -5 -9 -11 -23 -13 -14 -2 -23 -7 -20 -11 2 -5 -19 -21 -48 -37 -43 -24
-48 -29 -29 -32 29 -4 28 -20 -3 -34 -24 -11 -26 -32 -1 -22 7 3 13 -2 13 -11
0 -8 -4 -16 -9 -16 -35 -6 -78 -29 -107 -58 -16 -17 -56 -38 -96 -52 -37 -12
-73 -28 -80 -36 -8 -7 -19 -13 -26 -13 -7 0 -10 -3 -6 -6 3 -4 -1 -13 -9 -21
-8 -8 -12 -19 -9 -24 4 -5 2 -9 -2 -9 -5 0 -9 -79 -8 -175 0 -96 -3 -175 -7
-175 -13 0 -2 -54 15 -80 9 -14 28 -34 43 -45 15 -11 33 -26 41 -33 7 -7 13
-10 13 -7 0 4 8 -3 19 -16 17 -21 19 -50 3 -47 -18 2 -32 -3 -32 -11 0 -6 12
-6 32 0 17 5 34 7 36 4 9 -9 9 -111 -1 -122 -6 -9 -6 -13 2 -13 7 0 6 -9 -5
-25 -9 -14 -12 -25 -8 -25 5 0 1 -5 -8 -11 -22 -12 -24 -31 -3 -23 25 10 35
-4 24 -34 -12 -30 -44 -64 -53 -55 -3 4 -6 1 -6 -5 0 -14 -66 -35 -91 -29 -10
3 -19 1 -19 -4 0 -12 56 -11 104 2 21 6 50 22 64 36 32 32 42 21 46 -50 3 -39
0 -60 -10 -68 -8 -6 -11 -15 -8 -20 3 -5 0 -9 -5 -9 -6 0 -10 -3 -9 -7 2 -11
-14 -45 -26 -59 -6 -7 -22 -26 -36 -44 -49 -62 -130 -96 -193 -79 -16 5 -25 4
-22 -2 4 -5 12 -9 20 -9 7 0 15 -4 17 -9 5 -15 91 -23 121 -12 16 6 28 7 32 1
9 -15 -27 -59 -52 -66 -22 -6 -32 -24 -14 -24 19 0 71 23 71 31 0 5 3 8 8 7 4
-1 17 3 29 10 33 18 36 5 18 -78 -2 -8 -4 -16 -5 -17 -2 -2 -3 -7 -4 -12 0 -5
-4 -13 -9 -17 -4 -4 -7 -18 -7 -31 0 -13 -5 -23 -11 -23 -6 0 -9 -6 -6 -12 2
-7 -4 -27 -14 -44 -9 -17 -23 -42 -31 -55 -7 -13 -26 -37 -41 -52 -16 -16 -26
-31 -23 -34 15 -15 129 90 142 129 6 19 21 23 42 9 20 -12 19 -16 -2 -40 -11
-12 -15 -21 -11 -21 5 0 -1 -9 -13 -20 -12 -12 -22 -25 -22 -30 0 -6 -9 -19
-20 -30 -24 -24 -26 -40 -5 -40 28 0 71 28 83 54 6 14 15 26 20 26 17 0 20
-13 9 -37 -8 -19 -8 -29 2 -45 10 -16 10 -19 -1 -12 -11 6 -11 5 0 -8 9 -11
10 -18 2 -23 -6 -3 -8 -11 -5 -16 4 -5 1 -9 -5 -9 -6 0 -9 -4 -6 -9 4 -5 1
-11 -5 -13 -9 -3 -9 -9 -1 -25 10 -18 7 -25 -22 -54 -19 -19 -49 -45 -67 -59
-41 -31 -94 -83 -179 -178 -53 -58 -71 -72 -94 -72 -16 0 -27 -3 -24 -6 8 -8
57 -7 98 1 19 4 41 8 48 8 6 0 12 3 12 7 0 5 44 6 60 1 3 -1 -5 -9 -16 -19
-12 -9 -38 -36 -59 -59 l-37 -43 38 16 c22 9 45 21 52 26 15 13 21 8 27 -21 2
-14 -1 -21 -11 -21 -8 0 -13 -4 -10 -8 3 -5 -3 -18 -13 -29 -16 -17 -52 -77
-56 -93 -1 -3 -9 -21 -17 -40 -20 -47 -31 -73 -34 -85 -5 -22 -16 -71 -19 -90
-2 -11 -8 -32 -14 -47 -7 -19 -7 -28 0 -28 6 0 6 -6 0 -18 -9 -17 -22 -105
-21 -150 0 -13 -5 -33 -11 -44 -9 -16 -8 -19 2 -13 9 6 10 3 4 -11 -4 -10 -8
-45 -9 -76 0 -32 -4 -58 -9 -58 -4 0 -3 -8 2 -19 6 -10 7 -22 3 -25 -4 -4 -7
-38 -7 -74 -1 -37 -4 -72 -7 -77 -3 -6 -3 -26 -1 -45 2 -19 4 -74 5 -122 1
-49 4 -88 8 -88 3 0 5 -25 5 -55 -1 -30 1 -55 4 -55 3 0 7 -17 8 -38 6 -91 9
-128 15 -137 3 -6 4 -18 3 -27 -2 -10 0 -18 4 -18 4 0 8 -10 9 -22 3 -39 8
-63 16 -76 4 -6 4 -16 1 -22 -3 -5 -1 -10 5 -10 6 0 8 -5 5 -10 -4 -6 -1 -17
5 -25 7 -8 10 -15 6 -15 -4 0 0 -10 9 -23 8 -13 12 -27 8 -30 -3 -4 -1 -7 6
-7 7 0 10 -4 6 -9 -3 -5 1 -16 9 -24 8 -8 12 -17 9 -21 -4 -3 -1 -6 6 -6 7 0
10 -4 6 -9 -3 -5 -1 -12 5 -16 6 -4 8 -11 5 -16 -4 -5 -1 -9 5 -9 6 0 8 -5 5
-10 -3 -5 -1 -10 5 -10 6 0 9 -4 5 -9 -3 -5 -1 -12 5 -16 6 -4 8 -11 5 -16 -4
-5 -1 -9 4 -9 6 0 11 -3 10 -7 -2 -16 14 -53 23 -53 5 0 6 -5 3 -10 -3 -5 -1
-10 4 -10 6 0 11 -3 10 -7 -2 -17 14 -53 24 -53 6 0 8 -3 4 -6 -3 -4 1 -21 10
-38 10 -17 17 -33 18 -36 0 -3 4 -11 8 -17 5 -7 10 -23 12 -35 3 -12 10 -25
16 -29 6 -4 8 -12 5 -18 -4 -6 -2 -11 4 -11 6 0 8 -4 5 -10 -3 -5 -1 -10 4
-10 6 0 10 -3 9 -7 -2 -8 22 -64 49 -116 8 -15 11 -27 7 -27 -4 0 1 -9 11 -20
10 -11 14 -20 10 -20 -4 0 -1 -8 8 -18 10 -10 14 -22 10 -25 -3 -4 -1 -7 6 -7
7 0 10 -4 6 -9 -3 -5 1 -16 9 -24 8 -8 12 -17 9 -21 -4 -3 -1 -6 5 -6 7 0 11
-3 11 -7 -3 -16 23 -73 34 -73 6 0 7 -3 4 -6 -4 -4 2 -19 13 -34 11 -15 17
-30 13 -34 -3 -3 -1 -6 6 -6 7 0 10 -4 7 -8 -3 -5 4 -19 15 -30 11 -12 17 -22
14 -22 -3 0 3 -10 14 -22 11 -11 18 -25 15 -30 -3 -4 0 -8 6 -8 6 0 8 -5 5
-10 -3 -6 -3 -10 2 -10 4 0 17 -18 27 -40 11 -22 23 -40 28 -40 5 0 7 -4 3
-10 -3 -5 3 -18 15 -30 11 -11 20 -24 20 -30 0 -5 5 -10 10 -10 6 0 9 -3 8 -8
-2 -4 2 -14 9 -22 7 -8 23 -27 35 -43 13 -15 32 -39 43 -53 11 -14 34 -40 50
-58 17 -19 39 -45 49 -60 10 -14 23 -26 27 -26 5 0 24 -15 42 -33 17 -18 52
-49 77 -68 25 -18 47 -37 48 -41 2 -5 8 -8 13 -8 6 0 22 -11 37 -25 15 -14 32
-25 39 -25 7 0 13 -4 13 -8 0 -5 12 -15 28 -23 15 -8 29 -17 32 -20 5 -6 207
-104 245 -119 11 -5 59 -13 107 -18 76 -8 90 -13 110 -36 89 -105 177 -180
148 -127 -14 27 -13 51 4 51 7 0 30 -16 50 -35 21 -19 34 -35 30 -35 -4 0 21
-27 55 -60 34 -33 59 -60 55 -60 -4 0 4 -9 17 -21 22 -19 24 -19 36 -2 18 25
73 98 102 134 23 29 55 36 57 11 1 -6 3 -14 4 -17 1 -3 3 -8 5 -12 2 -8 20
-55 32 -83 3 -8 7 -18 8 -22 2 -5 4 -11 5 -15 1 -5 2 -11 1 -15 0 -5 4 -8 10
-8 5 0 7 -4 4 -10 -3 -5 -1 -10 5 -10 6 0 8 -5 5 -10 -3 -5 -1 -10 6 -10 7 0
10 -3 6 -6 -3 -4 0 -19 8 -34 8 -15 11 -30 8 -34 -4 -3 -1 -6 5 -6 7 0 11 -3
10 -8 -1 -4 3 -17 10 -30 7 -12 10 -22 6 -22 -4 0 0 -8 9 -18 10 -10 14 -22
11 -25 -4 -4 1 -9 10 -13 9 -3 16 -12 16 -20 0 -31 17 -9 65 82 27 53 66 119
88 147 21 29 42 58 46 66 5 8 16 11 28 7 16 -5 19 -15 17 -69 -1 -34 -3 -62
-4 -62 -5 0 -7 -130 -3 -138 3 -4 18 11 33 35 87 133 136 173 159 130 6 -11 7
-22 4 -26 -3 -3 -1 -6 6 -6 7 0 9 -5 6 -10 -3 -6 -1 -10 5 -10 6 0 9 -4 6 -9
-3 -5 1 -14 9 -21 8 -7 12 -16 9 -21 -3 -5 0 -9 6 -9 6 0 8 -5 5 -10 -3 -6 1
-17 9 -26 9 -8 16 -24 16 -36 0 -31 25 -15 28 18 2 16 10 50 18 77 13 39 20
47 40 47 14 0 23 -4 20 -9 -3 -5 5 -20 19 -35 13 -14 22 -26 19 -26 -3 0 8
-14 25 -31 17 -17 31 -35 31 -40 0 -5 8 -9 17 -9 9 0 13 -3 10 -6 -7 -7 42
-54 56 -54 5 0 6 -4 2 -9 -3 -5 4 -12 15 -16 11 -4 18 -10 16 -14 -3 -4 8 -15
25 -25 16 -9 27 -21 25 -25 -3 -4 6 -14 19 -21 14 -7 25 -17 25 -22 0 -4 6 -8
14 -8 7 0 25 -12 40 -26 34 -35 61 -33 118 5 72 49 233 206 288 282 28 38 53
69 56 69 16 0 30 -29 29 -58 -1 -18 2 -35 7 -38 4 -3 6 -18 3 -35 -3 -17 -1
-29 5 -29 6 0 8 -5 5 -10 -3 -6 -2 -10 3 -10 8 0 71 128 122 248 24 55 42 65
62 32 7 -11 19 -20 26 -20 7 0 11 -4 8 -8 -3 -5 3 -18 14 -29 10 -12 16 -23
13 -27 -3 -3 2 -8 11 -12 9 -3 13 -10 10 -15 -3 -5 0 -9 7 -9 7 0 10 -3 6 -6
-3 -3 3 -15 14 -27 10 -11 19 -26 19 -33 0 -6 7 -15 16 -18 8 -3 12 -10 9 -16
-3 -5 -1 -10 4 -10 14 0 14 64 -1 167 -7 45 -9 85 -6 89 8 7 48 -5 46 -14 -4
-11 45 -92 54 -92 5 0 7 -4 3 -9 -3 -5 1 -16 9 -24 8 -8 12 -17 9 -21 -4 -3
-1 -6 6 -6 7 0 9 -5 6 -10 -3 -6 -1 -10 5 -10 6 0 8 -5 5 -10 -3 -6 -1 -10 5
-10 6 0 9 -4 6 -8 -2 -4 4 -19 14 -32 13 -17 22 -22 29 -15 10 10 82 208 127
349 11 33 24 61 30 63 16 5 108 -89 97 -100 -2 -3 5 -10 16 -17 12 -6 19 -15
16 -21 -4 -5 0 -9 7 -9 7 0 66 52 131 116 65 63 124 113 130 111 16 -5 16 -28
0 -54 -7 -13 -10 -23 -7 -23 4 0 -1 -9 -10 -19 -10 -11 -13 -22 -8 -25 6 -3
37 23 71 59 33 36 64 65 70 65 13 0 22 -28 11 -35 -6 -4 -10 -14 -10 -23 0
-19 13 -6 107 104 l52 61 73 6 c40 4 99 15 130 26 56 19 220 103 245 125 34
30 44 36 60 36 21 0 49 22 148 111 61 55 97 94 200 214 39 46 60 80 57 96 -2
10 6 19 18 22 14 3 20 13 20 31 0 14 5 26 10 26 6 0 10 7 10 15 0 8 6 15 13
15 7 0 24 20 37 44 14 25 56 96 94 158 78 127 266 497 266 524 0 2 38 81 85
175 47 94 85 182 85 195 0 13 5 24 10 24 6 0 10 7 10 15 0 8 5 15 10 15 6 0
10 9 10 19 0 11 5 23 10 26 6 3 10 15 10 26 0 10 5 19 10 19 6 0 10 12 10 26
0 14 4 33 9 42 9 18 55 224 65 297 4 23 8 50 10 60 2 11 7 56 11 100 4 44 9
94 11 110 5 40 5 373 0 405 -2 14 -7 66 -10 115 -11 135 -43 311 -71 390 -14
39 -46 105 -70 149 -25 43 -45 83 -45 87 0 5 -4 9 -10 9 -5 0 -10 11 -10 25 0
30 12 31 65 5 51 -24 57 -17 17 20 -18 16 -32 34 -32 41 0 7 -3 10 -6 6 -8 -7
-34 17 -34 32 0 14 6 14 58 -4 44 -16 138 -23 149 -11 3 3 -6 6 -20 6 -21 0
-49 21 -114 85 -48 47 -84 85 -80 85 4 0 -32 36 -79 80 -48 44 -90 80 -94 80
-9 0 -6 112 4 128 4 7 2 12 -4 12 -11 0 -6 47 6 59 2 2 22 -8 44 -23 37 -25
70 -34 70 -20 0 7 -60 82 -86 108 -19 19 -30 76 -15 76 6 0 19 -10 29 -22 63
-78 128 -128 167 -128 20 1 20 1 0 12 -44 26 -98 106 -130 193 -12 33 -25 69
-30 80 -14 39 -15 47 -9 71 6 22 34 35 34 15 0 -14 77 -41 113 -40 29 1 30 2
7 8 -47 12 -110 54 -110 74 0 16 5 18 33 11 48 -12 108 -8 147 9 34 15 34 16
6 12 -41 -6 -115 12 -151 37 -41 28 -100 106 -125 163 -22 51 -33 125 -19 125
5 0 6 7 3 15 -7 17 11 21 22 4 11 -19 88 -49 126 -49 45 0 58 14 15 16 -65 3
-79 9 -113 46 -25 28 -34 47 -34 73 0 19 5 35 10 35 6 0 10 -7 10 -15 0 -9 7
-18 15 -21 8 -4 15 -12 15 -20 0 -8 5 -14 10 -14 14 0 13 7 -6 35 -9 14 -13
25 -9 25 4 0 3 6 -2 13 -20 24 -37 116 -28 153 4 18 11 21 50 19 53 -3 57 2
15 16 -41 15 -39 44 5 65 19 9 35 20 35 25 0 5 4 9 10 9 15 0 50 33 50 46 0 7
6 14 13 17 9 3 7 8 -5 18 -15 13 -16 27 -6 151 17 243 -7 312 -122 344 -30 8
-64 19 -75 24 -11 4 -28 11 -37 14 -10 3 -18 11 -18 18 0 7 -23 24 -50 37 -51
25 -64 46 -32 54 13 3 11 6 -11 15 -33 14 -31 35 4 42 22 4 15 10 -48 40 -48
23 -72 40 -70 50 3 15 12 16 93 7 45 -5 154 9 167 22 4 4 -20 5 -54 3 -62 -5
-157 11 -194 31 -11 6 -26 10 -32 9 -7 -2 -13 2 -13 8 0 6 -5 8 -10 5 -6 -3
-10 1 -10 9 0 9 -4 16 -10 16 -5 0 -10 7 -10 15 0 13 8 15 38 9 l37 -6 -37 26
c-21 15 -51 29 -68 33 -46 9 -37 39 10 35 106 -8 219 -5 255 7 22 8 40 12 41
10 0 -2 8 4 18 14 10 9 23 17 30 17 7 0 21 10 32 22 10 13 12 18 4 12 -8 -6
-28 -15 -45 -19 -16 -5 -37 -10 -45 -12 -33 -9 -210 -10 -261 -1 -30 5 -66 10
-81 12 -33 3 -43 11 -33 26 4 7 20 10 36 8 16 -3 29 -1 29 4 0 4 -8 8 -17 8
-35 1 -72 45 -40 48 25 1 57 11 91 27 40 19 126 99 126 118 0 8 -3 7 -9 -2 -8
-12 -12 -12 -25 -2 -26 22 -19 39 22 51 95 31 268 156 349 252 86 103 178 290
188 385 2 18 9 42 15 53 20 38 3 32 -21 -7 -12 -21 -23 -40 -23 -43 -1 -3 -11
-19 -23 -35 -18 -24 -24 -28 -35 -17 -10 10 -9 18 5 45 38 73 80 307 55 307
-5 0 -6 -4 -3 -10 3 -5 2 -10 -3 -10 -5 0 -9 -6 -10 -12 -2 -29 -12 -62 -28
-85 -9 -14 -11 -22 -5 -19 7 5 9 1 5 -8 -3 -9 -10 -16 -16 -16 -5 0 -7 -4 -4
-9 8 -12 -21 -47 -31 -38 -11 12 -7 105 6 140 33 86 -15 401 -81 532 -40 79
-74 123 -118 154 -25 17 -52 31 -60 31 -12 -1 -11 -3 2 -11 22 -12 63 -101 59
-126 -1 -7 2 -13 7 -13 5 0 9 -15 10 -32 1 -18 2 -40 2 -48 1 -8 -1 -25 -4
-37 -3 -13 0 -23 6 -23 6 0 4 -8 -5 -18 -10 -10 -17 -26 -17 -35 0 -18 -17
-53 -37 -75 -7 -7 -18 -21 -25 -30 -16 -21 -61 -51 -85 -56 -10 -1 -26 -7 -36
-11 -30 -13 -180 1 -221 20 -20 10 -40 15 -43 11 -3 -3 -1 -6 5 -6 7 0 12 -9
12 -20 0 -11 5 -20 11 -20 5 0 8 -4 4 -9 -3 -5 -2 -12 3 -15 7 -4 9 -71 2 -71
-2 0 -4 -9 -5 -20 -5 -40 -24 -71 -71 -121 -51 -54 -179 -138 -195 -128 -5 3
-9 1 -9 -4 0 -8 -71 -44 -92 -46 -3 -1 -10 -4 -14 -8 -14 -15 -24 -8 -24 16 0
13 16 40 36 62 20 22 48 63 61 93 21 44 24 62 19 106 -7 64 -44 138 -97 195
-36 39 -63 50 -43 18 5 -7 10 -22 11 -32 2 -11 7 -24 12 -30 4 -6 7 -47 6 -91
-3 -122 -51 -204 -160 -273 -22 -14 -42 -28 -45 -31 -13 -15 -279 -148 -315
-157 -14 -3 -31 -2 -38 4 -6 5 -20 8 -29 7 -10 -2 -39 3 -65 11 -26 8 -65 16
-88 19 -40 4 -230 50 -244 59 -4 3 -25 7 -47 10 -21 2 -50 7 -64 10 -14 3 -43
8 -64 11 -22 3 -45 10 -52 16 -7 6 -18 9 -26 8 -7 -1 -31 3 -53 9 -22 6 -56
12 -75 14 -19 1 -39 8 -45 14 -5 7 -39 15 -75 19 -36 3 -72 8 -80 10 -18 5
-109 16 -170 21 -25 2 -63 6 -85 8 -22 3 -112 8 -200 11 -152 7 -161 6 -187
-14 -14 -12 -29 -21 -32 -21 -12 0 -6 38 7 43 16 7 -134 12 -213 7 -23 -1 -23
-2 -5 -10 11 -5 16 -9 11 -9 -5 -1 -3 -7 3 -15 22 -26 -5 -25 -41 0 -38 27
-27 26 -240 21 -31 -1 -56 -6 -55 -11 1 -5 -30 -9 -69 -8 -38 0 -90 -3 -115
-8 -24 -4 -88 -11 -142 -14 -54 -3 -108 -12 -120 -18 -12 -7 -33 -13 -47 -14
-101 -7 -192 -22 -200 -34 -3 -5 -34 -11 -70 -15 -36 -3 -90 -13 -120 -22 -30
-8 -68 -17 -85 -20 -16 -2 -48 -9 -70 -15 -22 -6 -47 -12 -55 -14 -154 -29
-230 -51 -245 -69 -9 -10 -43 3 -165 64 -208 103 -278 153 -336 240 -51 77
-59 214 -17 294 8 16 12 31 9 34 -7 8 -106 -98 -101 -108 3 -4 0 -9 -5 -11 -6
-2 -12 -11 -13 -20 -2 -9 -9 -23 -16 -32 -7 -9 -11 -22 -8 -31 4 -8 2 -17 -2
-20 -5 -2 -7 -26 -5 -52 6 -71 7 -73 16 -73 5 0 6 -4 3 -10 -3 -5 -1 -10 4
-10 6 0 11 -7 11 -15 0 -14 61 -80 110 -119 31 -25 13 -32 -37 -15 -67 21
-206 95 -268 142 -109 82 -163 214 -121 298 9 17 16 33 16 35 0 2 -26 -6 -57
-17 -72 -24 -175 -27 -228 -5 -59 25 -128 102 -148 167 -33 105 -17 239 36
311 27 37 19 41 -23 12z"/>
<path d="M1870 7640 c0 -5 7 -10 16 -10 8 0 12 5 9 10 -3 6 -10 10 -16 10 -5
0 -9 -4 -9 -10z"/>
<path d="M1491 6104 c0 -11 3 -14 6 -6 3 7 2 16 -1 19 -3 4 -6 -2 -5 -13z"/>
<path d="M7976 6075 c4 -8 8 -15 10 -15 2 0 4 7 4 15 0 8 -4 15 -10 15 -5 0
-7 -7 -4 -15z"/>
</g>
</svg>
